<svg width="182" height="123" viewBox="0 0 182 123" fill="none" xmlns="http://www.w3.org/2000/svg">
<path d="M136.236 68.9473L149.806 68.9237L151.63 55.6614L138.164 55.6849L141.45 32.6255H155.6L157.43 20.0845L128.748 20.1363L117.281 103.006L131.568 102.982L136.236 68.9473Z" fill="#FF4A01"/>
<path d="M73.9977 27.3403L66.4631 19.8016L66.4537 19.7969L36.4708 19.8252L34.7027 32.6208L59.2869 32.4746L51.276 89.8616H26.7909L25.0039 102.794L49.423 102.737L49.4183 102.775H55.1895L55.2461 102.723L64.3319 94.6139L73.9977 27.3403Z" fill="#FF4A01"/>
<path d="M115.386 23.9364C113.076 21.4989 109.86 20.1128 106.498 20.1128H94.6966C91.3348 20.1128 88.1238 21.4942 85.8088 23.9364L84.4744 25.3414C82.7346 27.1801 81.6077 29.5091 81.2446 32.0126L78.5712 50.5413C77.35 58.3535 80.4478 64.2091 87.8504 66.5617L94.7437 69.1171C98.5488 70.3429 99.2749 72.1957 98.7656 75.4819L97.2427 86.5849C96.8372 89.6683 94.9889 90.8045 92.108 90.8092H92.0043C89.0244 90.814 87.6853 89.4797 87.8834 85.9861L89.7081 72.5163L75.1104 72.5399L73.4129 85.5241L73.2809 86.5189C73.2809 86.5707 73.2762 86.6226 73.2715 86.6745L73.0688 88.3482C72.602 92.2001 73.9835 96.0425 76.8031 98.711L77.7602 99.6162C80.0328 101.771 83.0457 102.973 86.1812 102.973H96.7712C99.902 102.973 102.915 101.771 105.192 99.6162L107.668 97.2683C109.653 95.3919 110.949 92.9026 111.355 90.201L111.383 90.0266L111.43 89.706H111.425L111.789 87.0139C111.807 86.8913 111.826 86.7735 111.845 86.6509L112.1 84.7179L112.274 83.3883L113.571 73.497C114.688 65.0672 110.874 60.0366 102.849 57.2738L97.502 55.3314C93.8997 54.0018 92.7681 52.2574 93.2774 48.9666L95.0031 36.4208C95.4085 33.5402 97.0494 32.2012 99.6191 32.1965H99.8265C102.707 32.1918 103.943 33.7335 103.74 36.8169L101.708 51.6209L116.202 51.5973L118.625 34.0163C119.135 30.3342 117.942 26.6237 115.386 23.927V23.9364Z" fill="#FF4A01"/>
<path d="M0 122.77L17.6342 0.0330027L182 0L165.059 122.737L0 122.77ZM27.1821 11.0465L12.7117 111.752L155.459 111.724L169.359 11.0182L27.1821 11.0465Z" fill="#FF4A01"/>
<path d="M32.991 43.1958L27.7715 79.4987H41.4451L46.6646 43.1958H32.991Z" fill="#FF4A01"/>
</svg>
