<svg width="30" height="30" viewBox="0 0 30 30" fill="none" xmlns="http://www.w3.org/2000/svg">
<path d="M14.75 1C7.15608 1 1 7.15608 1 14.75C1 22.3439 7.15608 28.5 14.75 28.5C22.3439 28.5 28.5 22.3439 28.5 14.75C28.5 7.15608 22.3439 1 14.75 1ZM14.75 1V4.75M9.25 22.25L15.0398 20.0385L20.25 22.25M9.25 22.25L9.75137 15.8077L6.25 11.25M9.25 22.25L6.7325 25.9219M6.25 11.25L11.25 9.46154L14.75 4.75M6.25 11.25L1.66317 10.5192M14.75 4.75L18.2129 9.46154L23.75 11.25M23.75 11.25L19.7994 15.8077L20.25 22.25M23.75 11.25L27.8368 10.5192M20.25 22.25L23.0512 25.7124" stroke="white" stroke-width="2" stroke-miterlimit="10"/>
</svg>
